<svg xmlns="http://www.w3.org/2000/svg" version="1.1" xmlns:xlink="http://www.w3.org/1999/xlink" xmlns:svgjs="http://svgjs.dev/svgjs" width="1500" height="1500" viewBox="0 0 1500 1500"><g transform="matrix(1,0,0,1,0,0)"><svg viewBox="0 0 280 280" data-background-color="#f9f9f9" preserveAspectRatio="xMidYMid meet" height="1500" width="1500" xmlns="http://www.w3.org/2000/svg" xmlns:xlink="http://www.w3.org/1999/xlink"><g id="tight-bounds" transform="matrix(1,0,0,1,0,0)"><svg viewBox="0 0 280 280" height="280" width="280"><g><svg viewBox="0 0 280 280" height="280" width="280"><g><svg viewBox="0 0 280 280" height="280" width="280"><g id="textblocktransform"><svg viewBox="0 0 280 280" height="280" width="280" id="textblock"><g><svg viewBox="0 0 280 280" height="280" width="280"><g transform="matrix(1,0,0,1,93.14944909678437,90.50252531694167)"><svg viewBox="0 0 93.70110180643127 98.99494936611666" height="98.99494936611666" width="93.70110180643127"><g id="icon-0"><svg xmlns="http://www.w3.org/2000/svg" xmlns:xlink="http://www.w3.org/1999/xlink" version="1.1" x="0" y="0" viewBox="5.6999999999999975 3.2 88.50000000000001 93.50000000000001" enable-background="new 0 0 100 100" xml:space="preserve" height="98.99494936611666" width="93.70110180643127" class="icon-xg-0" data-fill-palette-color="accent" id="xg-0"><path d="M83.5 3.2c-11.2 0-22.3 0-33.5 0 0 0 0 0 0 0-11.2 0-22.5 0-33.7 0-6 0-10.6 4.5-10.6 10.4 0 18.6 0 37.1 0 55.7 0 1.1 0.2 2.2 0.5 3.2 1.3 4.4 5.2 7.3 9.8 7.3 2.6 0 5.2 0 7.8 0 1.4 3.1 3.4 6 5.9 8.5 5.4 5.4 12.6 8.4 20.3 8.4s14.9-3 20.3-8.4c2.5-2.5 4.5-5.4 5.9-8.5 2.4 0 4.8 0 7.2 0 1.7 0 3.4-0.2 4.9-1 3.9-2 5.9-5.2 5.9-9.6 0-18.4 0-36.9 0-55.3C94.2 7.7 89.8 3.2 83.5 3.2zM82.5 8.6c1.9 0 3.4 1.5 3.4 3.4s-1.5 3.4-3.4 3.4c-1.9 0-3.4-1.5-3.4-3.4S80.6 8.6 82.5 8.6zM70.7 8.6c1.9 0 3.4 1.5 3.4 3.4s-1.5 3.4-3.4 3.4c-1.9 0-3.4-1.5-3.4-3.4S68.9 8.6 70.7 8.6zM59 8.6c1.9 0 3.4 1.5 3.4 3.4s-1.5 3.4-3.4 3.4c-1.9 0-3.4-1.5-3.4-3.4S57.1 8.6 59 8.6zM27 68.1c0-2 0.3-4.1 0.8-6h8.4c-0.3 2.1-0.4 4.2-0.4 6.3 0 1.9 0.1 3.8 0.3 5.7-2.8 0-5.6 0-8.3 0C27.3 72.1 27 70.1 27 68.1zM41.5 68.4c0-2.1 0.2-4.2 0.5-6.3h16c0.3 1.9 0.4 3.8 0.4 5.7 0 2.1-0.2 4.2-0.5 6.3-5.4 0-10.7 0-16.1 0C41.6 72.2 41.5 70.2 41.5 68.4zM43.2 56.3c1.2-4 2.9-7.7 5.2-11.2 1.1-0.1 2.2-0.1 3.3 0 2.2 3.5 3.9 7.2 5 11.2H43.2zM59.4 47.1c4.3 1.9 8 5.2 10.4 9.3h-7.1C61.9 53.1 60.8 50 59.4 47.1zM63.7 62h8.5c0.5 2 0.8 4 0.8 6 0 2-0.3 4-0.8 6-2.8 0-5.7 0-8.5 0 0.3-2.1 0.4-4.2 0.4-6.3C64.1 65.8 64 63.9 63.7 62zM37.3 56.3h-7.1c2.5-4.1 6.2-7.4 10.6-9.3C39.3 50 38.1 53.1 37.3 56.3zM30.3 79.8c0.2 0 0.5 0 0.7 0 2.1 0 4.1 0 6.2 0 0.8 3.2 1.9 6.2 3.3 9.1C36.2 87 32.6 83.8 30.3 79.8zM48.1 91c-2.2-3.5-3.9-7.2-5-11.1 4.5 0 9 0 13.6 0-1.2 4-2.9 7.7-5.2 11.2C50.2 91.1 49.2 91.1 48.1 91zM59 89.2c1.5-3 2.7-6.1 3.5-9.4 2.4 0 4.8 0 7.2 0C67.2 84 63.5 87.3 59 89.2zM88.4 21.9c0 15.8 0 31.6 0 47.4 0 2.9-1.9 4.8-4.8 4.8-1.8 0-3.7 0-5.5 0 0.4-1.9 0.6-3.9 0.6-6 0-7.7-3-14.9-8.4-20.3-5.4-5.4-12.6-8.4-20.3-8.4s-14.9 3-20.3 8.4c-5.4 5.4-8.4 12.6-8.4 20.3 0 2 0.2 4 0.6 6-1.8 0-3.6 0-5.5 0-3 0-4.8-1.8-4.8-4.8 0-15.8 0-31.6 0-47.5 0-0.3 0-0.5 0-0.9 25.6 0 51.1 0 76.7 0C88.4 21.2 88.4 21.6 88.4 21.9z" fill="#030303" data-fill-palette-color="accent"></path></svg></g></svg></g><g id="text-0"><path d="M11.733 88.837v0 0c-0.022-0.244-0.011-0.537 0.035-0.879 0.046-0.342 0.133-0.68 0.263-1.011v0c0.202-0.517 0.454-0.918 0.757-1.204 0.303-0.286 0.643-0.414 1.021-0.384v0c2.108 0.081 4.062 0.168 5.864 0.262 1.795 0.091 3.529 0.188 5.203 0.29 1.667 0.1 3.384 0.212 5.151 0.336v0l0.059-0.153c-2.13-1.398-4.207-2.761-6.232-4.089-2.031-1.33-4.096-2.659-6.195-3.987-2.105-1.33-4.38-2.678-6.823-4.044v0c-0.037-0.433 0.046-0.908 0.248-1.425v0c0.192-0.491 0.456-0.837 0.791-1.037 0.327-0.196 0.71-0.208 1.15-0.036v0c0.491 0.192 1.207 0.552 2.147 1.082 0.94 0.529 2.025 1.177 3.254 1.944 1.238 0.763 2.537 1.598 3.896 2.504 1.359 0.906 2.712 1.828 4.059 2.766 1.338 0.942 2.596 1.852 3.774 2.732 1.181 0.873 2.193 1.669 3.037 2.388v0c0.042 0.288 0.05 0.634 0.025 1.036-0.027 0.408-0.132 0.845-0.313 1.311v0c-0.222 0.568-0.498 1.011-0.829 1.33-0.335 0.31-0.681 0.473-1.04 0.488v0c-1.045 0.003-2.412-0.027-4.1-0.092-1.688-0.064-3.524-0.164-5.507-0.299-1.993-0.132-3.954-0.277-5.885-0.435v0c1.511 1.157 3.074 2.378 4.69 3.663 1.609 1.283 3.101 2.498 4.476 3.646 1.369 1.145 2.447 2.11 3.235 2.896v0c0.039 0.221 0.042 0.542 0.01 0.963-0.03 0.415-0.136 0.855-0.318 1.321v0c-0.222 0.568-0.502 1.002-0.84 1.304-0.345 0.299-0.682 0.458-1.013 0.475v0c-0.746 0.01-1.839-0.053-3.279-0.189-1.435-0.127-3.07-0.31-4.903-0.548-1.827-0.236-3.714-0.506-5.66-0.811-1.956-0.301-3.835-0.601-5.636-0.901-1.802-0.3-3.39-0.6-4.765-0.903v0c-0.109-0.248-0.182-0.56-0.219-0.934-0.031-0.372 0.023-0.737 0.163-1.095v0c0.182-0.466 0.436-0.786 0.761-0.96 0.317-0.17 0.753-0.206 1.309-0.106v0c1.759 0.297 3.461 0.588 5.108 0.871 1.644 0.289 3.305 0.574 4.982 0.855 1.675 0.287 3.428 0.578 5.26 0.875 1.839 0.299 3.81 0.607 5.915 0.922v0l0.06-0.153c-1.019-0.817-1.993-1.598-2.922-2.344-0.927-0.752-1.88-1.529-2.861-2.331-0.983-0.796-2.064-1.67-3.243-2.623-1.179-0.953-2.552-2.049-4.12-3.287z" fill="#030303" data-fill-palette-color="primary"></path><path d="M39.591 57.898l-6.36 12.602-2.247-1.358 5.756-11.296c-1.317-0.78-2.651-1.062-4-0.847-1.345 0.209-2.491 0.998-3.439 2.365v0c-0.983 1.418-1.285 2.942-0.907 4.571 0.373 1.625 1.505 3.093 3.397 4.404v0l0.751 0.521c1.937 1.101 3.737 1.461 5.4 1.081 1.663-0.38 3.119-1.471 4.368-3.272v0c0.663-0.957 1.106-1.933 1.33-2.928 0.218-0.999 0.301-1.853 0.251-2.563v0c0.329-0.138 0.656-0.208 0.981-0.207 0.315 0.002 0.611 0.098 0.887 0.29v0c0.433 0.3 0.669 0.826 0.706 1.577 0.038 0.751-0.112 1.61-0.448 2.576-0.331 0.97-0.844 1.957-1.538 2.958v0c-1.217 1.756-2.593 3.056-4.128 3.901-1.525 0.842-3.163 1.174-4.914 0.993-1.75-0.18-3.537-0.902-5.36-2.165v0c-1.3-0.901-2.326-1.891-3.078-2.971-0.752-1.079-1.248-2.202-1.489-3.369-0.239-1.157-0.224-2.334 0.047-3.53 0.271-1.196 0.786-2.342 1.547-3.44v0c0.964-1.39 2.108-2.409 3.432-3.058 1.33-0.645 2.735-0.904 4.214-0.778 1.476 0.131 2.897 0.671 4.265 1.619v0c0.507 0.351 0.789 0.713 0.846 1.086 0.054 0.379-0.036 0.791-0.27 1.238z" fill="#030303" data-fill-palette-color="primary"></path><path d="M44.663 37.707v0 0c1.226-1.205 2.587-2.028 4.082-2.469 1.495-0.432 3.049-0.394 4.662 0.114 1.613 0.518 3.225 1.598 4.838 3.239v0c1.636 1.666 2.687 3.317 3.152 4.953 0.465 1.646 0.436 3.229-0.086 4.749-0.522 1.53-1.467 2.967-2.835 4.312v0c-0.967 0.95-1.959 1.69-2.976 2.218-1.017 0.528-1.906 0.898-2.668 1.109v0c-0.689 0.129-1.231 0.154-1.628 0.073-0.387-0.081-0.784-0.329-1.192-0.745v0l-9.711-9.885 2.375-2.332 9.71 9.885c0.509-0.078 1.148-0.297 1.917-0.658 0.768-0.371 1.517-0.914 2.244-1.629v0c1.348-1.325 2.015-2.815 2.001-4.471-0.014-1.656-0.916-3.395-2.706-5.218v0c-1.804-1.837-3.535-2.768-5.191-2.792-1.661-0.029-3.133 0.587-4.418 1.849v0c-0.791 0.777-1.344 1.622-1.657 2.535-0.313 0.912-0.473 1.761-0.48 2.545v0l-2.333-1.495c0.104-0.764 0.352-1.68 0.743-2.746 0.387-1.062 1.106-2.109 2.157-3.141zM36.787 37.049l6.357 6.47-2.375 2.332-7.205-7.335c0.059-0.135 0.17-0.33 0.332-0.585 0.157-0.25 0.355-0.493 0.595-0.729v0c0.415-0.408 0.807-0.63 1.175-0.665 0.378-0.035 0.752 0.135 1.121 0.512z" fill="#030303" data-fill-palette-color="primary"></path><path d="M84.411 30.823v0 0c1.637-0.875 2.679-1.91 3.127-3.104 0.445-1.201 0.355-2.387-0.271-3.559v0c-0.536-1.003-1.304-1.656-2.305-1.959-0.992-0.301-2.296-0.287-3.915 0.042v0l-3.697 0.754c-1.198 0.229-2.311 0.296-3.34 0.201-1.023-0.098-1.935-0.41-2.737-0.937-0.805-0.533-1.475-1.3-2.011-2.302v0c-1.007-1.884-1.109-3.724-0.307-5.52 0.803-1.796 2.34-3.3 4.611-4.515v0c1.323-0.707 2.578-1.199 3.765-1.476 1.19-0.271 2.206-0.348 3.045-0.23 0.834 0.121 1.381 0.427 1.642 0.915v0c0.168 0.314 0.234 0.648 0.198 1.002-0.034 0.344-0.146 0.664-0.337 0.96v0c-0.871-0.163-1.925-0.151-3.161 0.036-1.236 0.187-2.467 0.608-3.692 1.263v0c-1.413 0.755-2.369 1.67-2.867 2.743-0.501 1.068-0.464 2.139 0.111 3.214v0c0.458 0.858 1.13 1.395 2.015 1.613 0.891 0.215 2.112 0.16 3.663-0.164v0l2.591-0.534c2.22-0.495 4.163-0.529 5.829-0.099 1.66 0.433 2.974 1.555 3.943 3.366v0c1.033 1.933 1.166 3.873 0.397 5.821-0.765 1.954-2.418 3.611-4.961 4.97v0c-1.492 0.797-2.882 1.327-4.171 1.589-1.295 0.265-2.387 0.313-3.277 0.144-0.89-0.169-1.466-0.498-1.727-0.987v0c-0.223-0.417-0.282-0.832-0.177-1.245 0.108-0.423 0.299-0.785 0.573-1.087v0c0.855 0.234 1.936 0.339 3.244 0.317 1.308-0.023 2.707-0.434 4.199-1.232z" fill="#030303" data-fill-palette-color="primary"></path><path d="M97.265 19.942v0l-1.131-3.607 3.176-0.996 1.082 3.451c0.532 1.699 1.365 2.776 2.498 3.232 1.127 0.458 2.484 0.438 4.072-0.06v0c1.059-0.332 1.926-0.726 2.601-1.181 0.667-0.46 1.176-0.874 1.527-1.243v0l-2.252-7.185 3.176-0.995 2.214 7.067c0.174 0.555 0.241 1.022 0.203 1.401-0.048 0.374-0.299 0.808-0.755 1.302v0c-0.475 0.522-1.205 1.113-2.189 1.773-0.984 0.66-2.231 1.227-3.741 1.7v0c-1.745 0.547-3.312 0.755-4.702 0.624-1.397-0.129-2.58-0.63-3.55-1.504-0.97-0.873-1.713-2.133-2.229-3.779zM109.897 4.604l2.765 8.822-3.176 0.995-3.137-10.007c0.114-0.093 0.302-0.217 0.563-0.37 0.254-0.151 0.528-0.273 0.822-0.366v0c0.582-0.182 1.044-0.205 1.388-0.069 0.351 0.134 0.609 0.466 0.775 0.995zM97.194 8.586l2.764 8.822-3.175 0.995-3.137-10.008c0.114-0.093 0.302-0.217 0.562-0.37 0.254-0.151 0.541-0.277 0.862-0.377v0c0.555-0.174 1.005-0.193 1.349-0.057 0.351 0.134 0.609 0.466 0.775 0.995z" fill="#030303" data-fill-palette-color="primary"></path><path d="M136.658 6.761v0l0.294 4.778-3.321 0.205-0.28-4.532c-0.084-1.353-0.541-2.323-1.374-2.91-0.826-0.594-1.891-0.851-3.196-0.77v0c-0.854 0.053-1.676 0.244-2.466 0.574-0.783 0.323-1.44 0.682-1.971 1.079v0l0.439 7.105-3.322 0.205-0.429-6.941c-0.034-0.554 0.053-1.029 0.262-1.426 0.215-0.404 0.602-0.806 1.161-1.204v0c0.716-0.518 1.637-0.983 2.765-1.395 1.127-0.419 2.271-0.665 3.433-0.737v0c1.415-0.087 2.676 0.051 3.782 0.415 1.107 0.364 1.946 0.902 2.518 1.615v0c0.174 0.154 0.32 0.299 0.439 0.436 0.118 0.13 0.242 0.301 0.371 0.512v0c0.212 0.323 0.403 0.744 0.572 1.262 0.176 0.517 0.284 1.094 0.323 1.729zM148.822 6.093v0l0.29 4.695-3.322 0.205-0.28-4.531c-0.084-1.353-0.531-2.324-1.342-2.912-0.819-0.594-1.878-0.852-3.177-0.772v0c-0.971 0.06-1.891 0.319-2.761 0.778-0.877 0.459-1.652 1.083-2.324 1.872v0l-1.481-2.327c0.673-0.762 1.578-1.442 2.714-2.04 1.129-0.598 2.439-0.943 3.93-1.035v0c1.497-0.092 2.807 0.063 3.929 0.467 1.123 0.404 2.018 1.073 2.686 2.006 0.668 0.926 1.047 2.124 1.138 3.594zM121.906 19.713l-0.581-9.422 3.322-0.205 0.656 10.632c-0.133 0.063-0.338 0.138-0.614 0.223-0.269 0.085-0.571 0.138-0.906 0.159v0c-0.581 0.036-1.032-0.053-1.355-0.267-0.316-0.221-0.489-0.594-0.522-1.12zM134.076 18.962l-0.581-9.422 3.321-0.205 0.657 10.631c-0.14 0.064-0.352 0.138-0.635 0.225-0.29 0.086-0.585 0.139-0.886 0.157v0c-0.608 0.038-1.067-0.051-1.374-0.265-0.302-0.222-0.469-0.595-0.502-1.121zM146.236 18.211l-0.582-9.422 3.322-0.205 0.656 10.632c-0.133 0.063-0.341 0.138-0.624 0.224-0.29 0.086-0.588 0.139-0.896 0.158v0c-0.608 0.038-1.063-0.051-1.365-0.266-0.309-0.221-0.479-0.595-0.511-1.121z" fill="#030303" data-fill-palette-color="primary"></path><path d="M173.922 11.143v0l-1.058 4.668-3.246-0.735 1.004-4.428c0.3-1.322 0.133-2.382-0.501-3.179-0.626-0.802-1.576-1.347-2.852-1.637v0c-0.835-0.189-1.677-0.236-2.528-0.141-0.842 0.09-1.574 0.251-2.195 0.482v0l-1.574 6.943-3.245-0.736 1.537-6.782c0.123-0.541 0.34-0.973 0.652-1.296 0.32-0.328 0.804-0.604 1.452-0.829v0c0.832-0.296 1.847-0.483 3.045-0.563 1.199-0.086 2.367-0.001 3.502 0.257v0c1.382 0.313 2.554 0.8 3.514 1.46 0.96 0.66 1.614 1.412 1.963 2.257v0c0.124 0.197 0.223 0.377 0.299 0.541 0.077 0.158 0.147 0.356 0.212 0.596v0c0.113 0.37 0.178 0.827 0.195 1.371 0.024 0.546-0.035 1.13-0.176 1.751zM185.785 13.917v0l-1.04 4.588-3.246-0.736 1.004-4.428c0.3-1.322 0.143-2.38-0.471-3.172-0.619-0.8-1.563-1.344-2.832-1.632v0c-0.948-0.215-1.905-0.225-2.869-0.029-0.971 0.194-1.889 0.576-2.756 1.145v0l-0.768-2.649c0.86-0.542 1.92-0.941 3.178-1.197 1.252-0.257 2.606-0.22 4.062 0.11v0c1.463 0.332 2.676 0.849 3.64 1.552 0.964 0.703 1.636 1.596 2.015 2.679 0.381 1.076 0.409 2.333 0.083 3.769zM156.128 19.432l2.087-9.206 3.246 0.736-2.355 10.388c-0.146 0.023-0.363 0.037-0.652 0.042-0.282 0.006-0.587-0.028-0.915-0.102v0c-0.568-0.129-0.976-0.341-1.225-0.636-0.241-0.3-0.303-0.708-0.186-1.222zM168.019 22.128l2.087-9.206 3.246 0.736-2.355 10.388c-0.152 0.022-0.376 0.034-0.672 0.037-0.302 0.002-0.6-0.031-0.895-0.097v0c-0.594-0.135-1.009-0.348-1.245-0.64-0.228-0.297-0.283-0.703-0.166-1.218zM179.9 24.822l2.087-9.207 3.246 0.736-2.355 10.389c-0.146 0.023-0.366 0.036-0.662 0.039-0.302 0.002-0.604-0.032-0.904-0.099v0c-0.594-0.135-1.006-0.347-1.235-0.639-0.234-0.299-0.293-0.705-0.177-1.219z" fill="#030303" data-fill-palette-color="primary"></path><path d="M195.984 31.113v0 0c1.042 0.52 1.958 0.847 2.748 0.981 0.784 0.131 1.377 0.17 1.778 0.118v0l2.692-5.395-4.862-1.829c-1.339-0.538-2.438-0.727-3.298-0.567-0.854 0.163-1.503 0.689-1.947 1.577v0c-0.459 0.919-0.45 1.823 0.025 2.71 0.469 0.885 1.424 1.686 2.864 2.405zM203.804 15.35v0 0c2.157 1.076 3.628 2.415 4.413 4.016 0.785 1.601 0.658 3.443-0.381 5.527v0l-4.403 8.823c-0.272 0.545-0.587 0.909-0.946 1.09-0.349 0.178-0.798 0.287-1.345 0.327v0c-0.756 0.028-1.698-0.071-2.826-0.296-1.13-0.22-2.317-0.64-3.561-1.261v0c-2.335-1.165-3.91-2.525-4.726-4.08-0.822-1.558-0.799-3.207 0.07-4.947v0c0.804-1.612 1.96-2.577 3.466-2.897 1.51-0.311 3.262-0.079 5.256 0.694v0l5.551 2.127 0.523-1.048c0.618-1.238 0.695-2.328 0.231-3.271-0.454-0.946-1.315-1.735-2.583-2.368v0c-1.017-0.508-2.066-0.844-3.148-1.008-1.081-0.165-2.072-0.242-2.972-0.232v0c-0.117-0.272-0.196-0.565-0.24-0.877-0.04-0.318 0.001-0.6 0.123-0.846v0c0.324-0.65 0.93-0.967 1.819-0.952v0c0.842-0.016 1.752 0.101 2.729 0.351 0.974 0.256 1.957 0.632 2.95 1.128z" fill="#030303" data-fill-palette-color="primary"></path><path d="M219.931 30.065v0l-3.872 5.313-2.689-1.96 3.726-5.113c0.375-0.515 0.766-0.853 1.172-1.015 0.416-0.163 0.954-0.228 1.616-0.195v0c0.859 0.042 1.894 0.291 3.103 0.748 1.213 0.452 2.437 1.127 3.67 2.027v0c1.793 1.307 2.363 2.408 1.71 3.305v0c-0.165 0.227-0.35 0.41-0.553 0.55-0.204 0.14-0.411 0.239-0.623 0.296v0c-0.195-0.21-0.456-0.468-0.783-0.774-0.318-0.308-0.657-0.593-1.017-0.855v0c-1.035-0.754-2.021-1.308-2.959-1.66-0.939-0.362-1.773-0.584-2.501-0.667zM208.79 39.703l5.705-7.829 2.399 2.359-6.128 8.409c-0.143-0.036-0.348-0.11-0.615-0.219-0.262-0.106-0.528-0.258-0.8-0.456v0c-0.47-0.343-0.762-0.699-0.873-1.068-0.102-0.371 0.002-0.77 0.312-1.196z" fill="#030303" data-fill-palette-color="primary"></path><path d="M238.742 32.97v0 0c0.395-0.428 0.88-0.646 1.456-0.654 0.581-0.014 1.095 0.186 1.544 0.6v0c0.468 0.432 0.708 0.929 0.721 1.491 0.017 0.557-0.171 1.049-0.566 1.476v0c-0.395 0.428-0.873 0.658-1.434 0.69-0.561 0.032-1.075-0.168-1.543-0.6v0c-0.448-0.413-0.688-0.91-0.721-1.491-0.033-0.58 0.148-1.084 0.543-1.512zM222.828 50.95l6.57-7.117 2.446 2.258-7.393 8.008c-0.138-0.053-0.333-0.149-0.586-0.29-0.248-0.135-0.495-0.317-0.741-0.544v0c-0.428-0.395-0.673-0.78-0.737-1.156-0.064-0.385 0.083-0.771 0.441-1.159zM236.533 41.011l-5.79 6.272-2.446-2.257 6.634-7.186c0.138 0.053 0.338 0.154 0.601 0.303 0.258 0.145 0.51 0.331 0.756 0.559v0c0.428 0.395 0.671 0.778 0.729 1.149 0.053 0.366-0.108 0.753-0.484 1.16z" fill="#030303" data-fill-palette-color="primary"></path><path d="M250.59 60.531l-20.423 0.164-0.84-1.038c0.007-0.252 0.073-0.513 0.199-0.783 0.125-0.26 0.296-0.478 0.514-0.654v0c0.255-0.207 0.547-0.342 0.875-0.405 0.318-0.064 0.647-0.11 0.986-0.137v0l20.455-0.123 0.808 0.997c-0.007 0.296-0.07 0.572-0.189 0.828-0.114 0.251-0.291 0.473-0.53 0.667v0c-0.234 0.19-0.508 0.314-0.821 0.374-0.312 0.05-0.657 0.087-1.034 0.11zM244.785 48.207l8.095 9.994-2.132 1.726-8.644-10.672c0.055-0.15 0.155-0.337 0.3-0.56 0.14-0.219 0.319-0.417 0.537-0.594v0c0.362-0.293 0.7-0.426 1.013-0.397 0.308 0.032 0.585 0.2 0.831 0.503zM238.048 70.425l-8.566-10.577 2.099-1.7 9.142 11.287c-0.033 0.133-0.115 0.304-0.244 0.515-0.135 0.215-0.319 0.417-0.553 0.607v0c-0.346 0.28-0.681 0.411-1.005 0.391-0.319-0.024-0.61-0.198-0.873-0.523z" fill="#030303" data-fill-palette-color="primary"></path><path d="M257.439 85.498l-8.413-11.335 2.22-1.399 7.517 10.209c1.288-0.828 2.138-1.893 2.551-3.195 0.416-1.296 0.225-2.674-0.573-4.135v0c-0.827-1.515-2.054-2.468-3.68-2.86-1.62-0.395-3.44-0.041-5.459 1.062v0l-0.802 0.438c-1.852 1.238-2.981 2.685-3.387 4.342-0.406 1.657-0.084 3.448 0.966 5.371v0c0.558 1.022 1.232 1.855 2.021 2.501 0.795 0.642 1.522 1.1 2.178 1.374v0c-0.024 0.356-0.109 0.68-0.254 0.97-0.143 0.281-0.362 0.502-0.657 0.663v0c-0.463 0.253-1.038 0.228-1.726-0.076-0.688-0.303-1.389-0.822-2.102-1.555-0.719-0.731-1.371-1.631-1.955-2.702v0c-1.024-1.875-1.569-3.688-1.635-5.438-0.069-1.741 0.369-3.354 1.314-4.838 0.945-1.484 2.392-2.757 4.339-3.82v0c1.388-0.758 2.733-1.231 4.035-1.419 1.302-0.188 2.528-0.128 3.68 0.179 1.142 0.305 2.187 0.846 3.134 1.624 0.948 0.778 1.741 1.753 2.381 2.925v0c0.811 1.485 1.209 2.964 1.195 4.439-0.02 1.478-0.418 2.85-1.194 4.116-0.779 1.26-1.898 2.289-3.359 3.086v0c-0.541 0.295-0.991 0.385-1.351 0.27-0.363-0.122-0.691-0.387-0.984-0.797z" fill="#030303" data-fill-palette-color="primary"></path><path d="M267.779 95.197v0l-6.212 2.151-1.089-3.145 5.98-2.071c0.602-0.208 1.116-0.263 1.541-0.164 0.434 0.103 0.914 0.358 1.438 0.763v0c0.682 0.525 1.388 1.32 2.119 2.386 0.738 1.063 1.356 2.317 1.857 3.76v0c0.726 2.097 0.565 3.326-0.484 3.69v0c-0.265 0.092-0.521 0.137-0.768 0.135-0.247-0.001-0.474-0.039-0.681-0.112v0c-0.04-0.283-0.107-0.644-0.201-1.083-0.085-0.434-0.201-0.862-0.346-1.282v0c-0.419-1.21-0.913-2.228-1.481-3.053-0.564-0.834-1.122-1.492-1.673-1.975zM253.13 96.747l9.154-3.17 0.622 3.307-9.832 3.404c-0.097-0.112-0.223-0.289-0.38-0.532-0.154-0.236-0.286-0.513-0.396-0.83v0c-0.19-0.55-0.226-1.009-0.107-1.376 0.128-0.363 0.441-0.631 0.939-0.803z" fill="#030303" data-fill-palette-color="primary"></path><path d="M28.745 183.97v0 0c0.182 0.164 0.372 0.388 0.571 0.671 0.199 0.283 0.363 0.59 0.493 0.921v0c0.202 0.517 0.288 0.983 0.259 1.399-0.029 0.416-0.192 0.74-0.49 0.974v0c-1.604 1.369-3.1 2.63-4.488 3.783-1.381 1.15-2.722 2.255-4.021 3.314-1.293 1.057-2.631 2.138-4.015 3.245v0l0.06 0.153c2.514-0.416 4.965-0.822 7.353-1.219 2.395-0.399 4.814-0.822 7.257-1.27 2.449-0.45 5.035-1.001 7.758-1.652v0c0.321 0.294 0.582 0.699 0.784 1.215v0c0.192 0.491 0.232 0.924 0.121 1.298-0.107 0.365-0.381 0.634-0.821 0.806v0c-0.491 0.192-1.262 0.412-2.311 0.661-1.05 0.248-2.287 0.508-3.711 0.777-1.428 0.279-2.948 0.545-4.562 0.801-1.613 0.255-3.233 0.495-4.858 0.718-1.622 0.215-3.164 0.398-4.626 0.551-1.46 0.159-2.744 0.26-3.852 0.303v0c-0.226-0.184-0.466-0.432-0.721-0.744-0.257-0.319-0.476-0.711-0.658-1.177v0c-0.222-0.568-0.319-1.081-0.293-1.54 0.035-0.455 0.18-0.809 0.434-1.063v0c0.766-0.711 1.791-1.615 3.075-2.712 1.284-1.097 2.701-2.269 4.252-3.514 1.554-1.254 3.094-2.477 4.621-3.669v0c-1.895 0.174-3.872 0.336-5.931 0.486-2.052 0.148-3.973 0.266-5.762 0.355-1.782 0.086-3.23 0.108-4.342 0.064v0c-0.178-0.136-0.398-0.37-0.66-0.702-0.259-0.325-0.48-0.72-0.662-1.186v0c-0.222-0.568-0.311-1.077-0.266-1.528 0.051-0.454 0.191-0.799 0.422-1.036v0c0.542-0.513 1.388-1.208 2.539-2.084 1.141-0.88 2.467-1.853 3.976-2.921 1.503-1.065 3.073-2.146 4.711-3.241 1.642-1.105 3.226-2.158 4.754-3.159 1.528-1.001 2.899-1.857 4.114-2.567v0c0.248 0.109 0.513 0.288 0.795 0.539 0.275 0.253 0.483 0.558 0.622 0.915v0c0.182 0.466 0.212 0.873 0.091 1.221-0.117 0.34-0.414 0.662-0.891 0.966v0c-1.494 0.974-2.943 1.914-4.345 2.822-1.405 0.902-2.819 1.818-4.241 2.75-1.425 0.925-2.912 1.899-4.461 2.922-1.555 1.027-3.212 2.137-4.973 3.333v0l0.06 0.153c1.303-0.09 2.549-0.176 3.737-0.258 1.191-0.076 2.419-0.151 3.684-0.226 1.262-0.081 2.65-0.171 4.162-0.27 1.513-0.099 3.265-0.224 5.256-0.378z" fill="#030303" data-fill-palette-color="primary"></path><path d="M38.866 222.06l-9.568-10.378 2.059-1.627 8.558 9.353c1.193-0.96 1.925-2.109 2.197-3.448 0.276-1.333-0.06-2.683-1.008-4.05v0c-0.983-1.418-2.304-2.236-3.962-2.453-1.653-0.221-3.425 0.324-5.316 1.635v0l-0.752 0.521c-1.71 1.427-2.679 2.986-2.907 4.677-0.228 1.691 0.283 3.437 1.531 5.238v0c0.663 0.957 1.422 1.714 2.275 2.273 0.859 0.554 1.63 0.933 2.312 1.134v0c0.014 0.357-0.036 0.687-0.15 0.992-0.112 0.295-0.307 0.537-0.583 0.729v0c-0.433 0.3-1.008 0.336-1.725 0.108-0.716-0.228-1.468-0.67-2.255-1.324-0.793-0.651-1.536-1.477-2.23-2.479v0c-1.217-1.756-1.952-3.501-2.203-5.234-0.253-1.724 0.011-3.374 0.793-4.95 0.783-1.576 2.086-2.995 3.909-4.259v0c1.3-0.901 2.587-1.514 3.862-1.84 1.274-0.325 2.5-0.396 3.678-0.212 1.168 0.182 2.264 0.61 3.289 1.283 1.025 0.673 1.917 1.558 2.678 2.656v0c0.964 1.39 1.517 2.819 1.659 4.286 0.137 1.472-0.113 2.878-0.75 4.22-0.641 1.336-1.645 2.477-3.013 3.425v0c-0.507 0.351-0.945 0.488-1.314 0.411-0.374-0.083-0.728-0.312-1.064-0.687z" fill="#030303" data-fill-palette-color="primary"></path><path d="M58.513 227.648v0 0c1.226 1.205 2.074 2.55 2.542 4.038 0.459 1.487 0.448 3.042-0.031 4.664-0.489 1.622-1.54 3.253-3.152 4.895v0c-1.636 1.666-3.268 2.746-4.896 3.239-1.637 0.494-3.221 0.494-4.751-0.001-1.539-0.495-2.993-1.414-4.361-2.758v0c-0.967-0.95-1.724-1.929-2.27-2.936-0.546-1.007-0.932-1.89-1.157-2.648v0c-0.142-0.686-0.176-1.228-0.102-1.626 0.074-0.388 0.315-0.79 0.723-1.205v0l9.711-9.885 2.374 2.332-9.711 9.885c0.087 0.508 0.318 1.142 0.693 1.904 0.385 0.762 0.941 1.5 1.668 2.215v0c1.348 1.325 2.85 1.965 4.506 1.922 1.656-0.044 3.379-0.977 5.169-2.799v0c1.804-1.837 2.704-3.583 2.699-5.24 0-1.661-0.643-3.123-1.928-4.385v0c-0.791-0.777-1.646-1.315-2.563-1.611-0.918-0.297-1.769-0.442-2.554-0.435v0l1.454-2.359c0.766 0.09 1.686 0.322 2.759 0.694 1.069 0.368 2.128 1.068 3.178 2.1zM59.031 219.763l-6.356 6.47-2.374-2.332 7.205-7.335c0.136 0.057 0.333 0.164 0.592 0.321 0.253 0.153 0.499 0.347 0.739 0.582v0c0.415 0.408 0.644 0.796 0.685 1.163 0.042 0.377-0.122 0.754-0.491 1.131z" fill="#030303" data-fill-palette-color="primary"></path><path d="M77.254 262.02v0 0c1.637 0.875 3.076 1.167 4.319 0.876 1.246-0.297 2.182-1.031 2.808-2.203v0c0.536-1.003 0.652-2.004 0.349-3.005-0.301-0.992-1.037-2.069-2.21-3.231v0l-2.68-2.656c-0.856-0.869-1.53-1.757-2.023-2.665-0.487-0.905-0.734-1.837-0.742-2.796-0.004-0.965 0.261-1.949 0.797-2.952v0c1.007-1.884 2.48-2.992 4.419-3.321 1.939-0.33 4.044 0.112 6.315 1.325v0c1.323 0.707 2.429 1.477 3.32 2.31 0.887 0.839 1.515 1.64 1.883 2.404 0.362 0.76 0.413 1.385 0.151 1.875v0c-0.168 0.314-0.409 0.554-0.723 0.72-0.305 0.163-0.633 0.248-0.986 0.254v0c-0.348-0.815-0.944-1.685-1.785-2.609-0.842-0.924-1.876-1.713-3.102-2.368v0c-1.413-0.755-2.704-1.042-3.874-0.859-1.166 0.177-2.036 0.802-2.61 1.877v0c-0.458 0.858-0.532 1.715-0.222 2.572 0.317 0.86 1.04 1.845 2.171 2.954v0l1.884 1.858c1.645 1.571 2.752 3.168 3.321 4.791 0.562 1.621 0.359 3.337-0.609 5.149v0c-1.033 1.933-2.573 3.121-4.619 3.565-2.05 0.45-4.346-0.005-6.888-1.365v0c-1.492-0.797-2.704-1.659-3.638-2.585-0.94-0.929-1.587-1.811-1.941-2.645-0.354-0.834-0.4-1.495-0.139-1.984v0c0.223-0.417 0.535-0.696 0.937-0.838 0.411-0.145 0.819-0.188 1.222-0.128v0c0.28 0.841 0.794 1.799 1.539 2.873 0.746 1.074 1.865 2.01 3.356 2.807z" fill="#030303" data-fill-palette-color="primary"></path><path d="M95.563 264.943v0l1.131-3.607 3.176 0.995-1.082 3.45c-0.532 1.699-0.464 3.059 0.207 4.08 0.664 1.019 1.79 1.777 3.378 2.275v0c1.059 0.332 1.995 0.503 2.809 0.515 0.81 0.003 1.464-0.047 1.963-0.149v0l2.252-7.185 3.176 0.995-2.215 7.067c-0.174 0.555-0.385 0.977-0.633 1.266-0.253 0.28-0.707 0.492-1.363 0.639v0c-0.688 0.158-1.625 0.226-2.81 0.206-1.185-0.02-2.532-0.266-4.042-0.739v0c-1.745-0.547-3.15-1.271-4.217-2.172-1.073-0.903-1.759-1.99-2.057-3.261-0.298-1.27-0.189-2.729 0.327-4.375zM114.69 259.559l-2.765 8.821-3.176-0.995 3.137-10.008c0.147-0.011 0.371-0.006 0.672 0.017 0.295 0.021 0.589 0.077 0.884 0.17v0c0.582 0.182 0.975 0.428 1.179 0.735 0.211 0.31 0.234 0.73 0.069 1.26zM101.986 255.577l-2.765 8.822-3.175-0.995 3.136-10.008c0.147-0.011 0.371-0.006 0.673 0.017 0.295 0.021 0.603 0.081 0.923 0.182v0c0.555 0.174 0.936 0.415 1.14 0.723 0.211 0.31 0.234 0.73 0.068 1.259z" fill="#030303" data-fill-palette-color="primary"></path><path d="M137.08 265.844v0l-0.295 4.778-3.321-0.205 0.279-4.532c0.084-1.353-0.252-2.372-1.005-3.057-0.746-0.691-1.772-1.077-3.078-1.157v0c-0.854-0.053-1.693 0.036-2.517 0.267-0.817 0.224-1.513 0.5-2.089 0.828v0l-0.438 7.105-3.322-0.205 0.428-6.941c0.034-0.554 0.179-1.015 0.436-1.383 0.263-0.375 0.697-0.725 1.299-1.052v0c0.774-0.426 1.746-0.774 2.916-1.045 1.17-0.278 2.336-0.381 3.497-0.309v0c1.415 0.087 2.649 0.38 3.703 0.877 1.053 0.497 1.82 1.135 2.3 1.912v0c0.154 0.174 0.281 0.336 0.382 0.487 0.101 0.143 0.203 0.328 0.305 0.554v0c0.171 0.347 0.308 0.787 0.413 1.322 0.111 0.535 0.147 1.121 0.107 1.756zM149.235 266.677v0l-0.29 4.695-3.322-0.205 0.28-4.531c0.084-1.353-0.241-2.372-0.975-3.055-0.74-0.691-1.759-1.076-3.057-1.156v0c-0.971-0.06-1.916 0.084-2.836 0.432-0.927 0.348-1.773 0.872-2.536 1.572v0l-1.184-2.491c0.762-0.673 1.744-1.237 2.945-1.692 1.194-0.455 2.537-0.636 4.026-0.544v0c1.497 0.092 2.778 0.408 3.842 0.948 1.064 0.539 1.871 1.313 2.42 2.321 0.549 1.001 0.778 2.237 0.687 3.706zM120.848 276.883l0.582-9.422 3.322 0.205-0.657 10.632c-0.14 0.046-0.352 0.095-0.636 0.146-0.278 0.051-0.584 0.067-0.919 0.046v0c-0.581-0.036-1.018-0.179-1.311-0.43-0.286-0.258-0.413-0.65-0.381-1.177zM133.018 277.635l0.582-9.422 3.321 0.205-0.656 10.631c-0.147 0.046-0.366 0.094-0.657 0.145-0.298 0.05-0.598 0.066-0.898 0.048v0c-0.608-0.038-1.052-0.182-1.332-0.433-0.272-0.257-0.392-0.649-0.36-1.174zM145.178 278.385l0.581-9.422 3.322 0.205-0.656 10.632c-0.14 0.046-0.356 0.095-0.647 0.145-0.298 0.05-0.601 0.066-0.909 0.047v0c-0.608-0.038-1.049-0.181-1.321-0.431-0.279-0.257-0.402-0.649-0.37-1.176z" fill="#030303" data-fill-palette-color="primary"></path><path d="M172.405 261.619v0l1.058 4.668-3.246 0.736-1.004-4.428c-0.3-1.322-0.907-2.206-1.823-2.651-0.91-0.454-2.003-0.536-3.279-0.247v0c-0.835 0.189-1.615 0.51-2.341 0.963-0.721 0.444-1.312 0.905-1.772 1.381v0l1.574 6.942-3.246 0.736-1.537-6.782c-0.123-0.541-0.113-1.024 0.029-1.45 0.147-0.434 0.465-0.892 0.952-1.374v0c0.623-0.626 1.458-1.233 2.505-1.821 1.045-0.595 2.135-1.021 3.27-1.279v0c1.382-0.313 2.649-0.379 3.8-0.198 1.151 0.182 2.066 0.578 2.745 1.19v0c0.197 0.124 0.364 0.244 0.502 0.36 0.137 0.109 0.287 0.258 0.449 0.445v0c0.261 0.285 0.517 0.669 0.767 1.154 0.257 0.482 0.456 1.034 0.597 1.655zM184.304 259.006v0l1.04 4.588-3.246 0.736-1.003-4.428c-0.3-1.322-0.897-2.209-1.793-2.659-0.904-0.455-1.99-0.539-3.259-0.251v0c-0.948 0.215-1.815 0.619-2.601 1.211-0.792 0.594-1.456 1.334-1.993 2.221v0l-1.836-2.059c0.542-0.86 1.326-1.677 2.352-2.45 1.019-0.772 2.256-1.323 3.712-1.652v0c1.463-0.332 2.78-0.388 3.953-0.17 1.173 0.219 2.164 0.735 2.974 1.548 0.808 0.807 1.375 1.928 1.7 3.365zM159.925 276.772l-2.087-9.207 3.246-0.736 2.355 10.389c-0.121 0.084-0.312 0.19-0.57 0.319-0.252 0.127-0.542 0.228-0.869 0.302v0c-0.568 0.129-1.028 0.114-1.38-0.045-0.347-0.167-0.579-0.508-0.695-1.022zM171.816 274.076l-2.087-9.207 3.246-0.735 2.355 10.388c-0.128 0.085-0.325 0.193-0.59 0.323-0.272 0.132-0.555 0.231-0.849 0.298v0c-0.594 0.135-1.061 0.121-1.4-0.041-0.333-0.17-0.559-0.512-0.675-1.026zM183.697 271.382l-2.087-9.206 3.246-0.736 2.355 10.388c-0.121 0.084-0.315 0.191-0.58 0.322-0.272 0.132-0.558 0.232-0.859 0.3v0c-0.594 0.135-1.058 0.12-1.39-0.043-0.34-0.169-0.569-0.51-0.685-1.025z" fill="#030303" data-fill-palette-color="primary"></path><path d="M202.872 262.146v0 0c1.042-0.52 1.854-1.055 2.436-1.605 0.576-0.548 0.964-0.998 1.164-1.35v0l-2.692-5.395-4.385 2.785c-1.235 0.746-2.047 1.511-2.437 2.294-0.383 0.781-0.353 1.615 0.09 2.504v0c0.459 0.919 1.186 1.456 2.181 1.61 0.989 0.157 2.204-0.124 3.643-0.843zM194.979 246.42v0 0c2.157-1.076 4.111-1.447 5.863-1.111 1.752 0.335 3.147 1.545 4.186 3.627v0l4.403 8.824c0.272 0.545 0.373 1.016 0.302 1.411-0.068 0.386-0.25 0.81-0.547 1.272v0c-0.432 0.621-1.078 1.315-1.936 2.079-0.855 0.771-1.905 1.467-3.148 2.088v0c-2.335 1.165-4.368 1.606-6.102 1.322-1.739-0.28-3.043-1.29-3.912-3.03v0c-0.804-1.612-0.881-3.115-0.23-4.511 0.66-1.393 1.898-2.654 3.715-3.783v0l5.037-3.156-0.523-1.048c-0.618-1.238-1.442-1.955-2.474-2.152-1.029-0.206-2.177 0.007-3.446 0.641v0c-1.017 0.508-1.917 1.144-2.698 1.908-0.782 0.765-1.439 1.51-1.973 2.236v0c-0.288-0.071-0.569-0.183-0.845-0.336-0.279-0.159-0.479-0.362-0.601-0.607v0c-0.324-0.65-0.213-1.325 0.332-2.025v0c0.494-0.683 1.134-1.339 1.922-1.97 0.791-0.624 1.682-1.184 2.675-1.679z" fill="#030303" data-fill-palette-color="primary"></path><path d="M213.143 240.074v0l3.872 5.313-2.69 1.961-3.727-5.114c-0.375-0.515-0.577-0.99-0.607-1.426-0.028-0.446 0.075-0.978 0.31-1.599v0c0.303-0.805 0.857-1.713 1.662-2.724 0.802-1.016 1.819-1.974 3.054-2.873v0c1.793-1.307 3.016-1.512 3.67-0.615v0c0.165 0.227 0.283 0.459 0.354 0.695 0.071 0.237 0.101 0.464 0.091 0.683v0c-0.259 0.121-0.585 0.291-0.977 0.509-0.391 0.208-0.766 0.444-1.125 0.705v0c-1.035 0.754-1.864 1.524-2.487 2.308-0.633 0.783-1.099 1.509-1.4 2.177zM218.904 253.632l-5.704-7.829 2.98-1.561 6.128 8.409c-0.078 0.125-0.211 0.298-0.398 0.519-0.181 0.217-0.407 0.424-0.678 0.621v0c-0.47 0.343-0.899 0.511-1.285 0.505-0.385-0.016-0.732-0.237-1.043-0.664z" fill="#030303" data-fill-palette-color="primary"></path><path d="M217.824 223.826v0 0c-0.395-0.428-0.574-0.929-0.536-1.504 0.033-0.58 0.273-1.077 0.721-1.491v0c0.468-0.432 0.982-0.632 1.543-0.599 0.556 0.027 1.032 0.254 1.426 0.682v0c0.395 0.428 0.586 0.922 0.574 1.484-0.013 0.562-0.253 1.058-0.721 1.49v0c-0.448 0.413-0.962 0.613-1.544 0.6-0.581-0.014-1.069-0.234-1.463-0.662zM234.477 241.123l-6.57-7.117 2.445-2.257 7.393 8.007c-0.063 0.133-0.175 0.32-0.335 0.561-0.155 0.236-0.355 0.468-0.602 0.696v0c-0.428 0.395-0.831 0.609-1.211 0.642-0.389 0.033-0.762-0.144-1.12-0.532zM225.663 226.669l5.79 6.272-2.446 2.258-6.633-7.186c0.063-0.133 0.18-0.325 0.35-0.574 0.165-0.245 0.371-0.482 0.617-0.71v0c0.428-0.395 0.829-0.607 1.203-0.635 0.369-0.024 0.742 0.168 1.119 0.575z" fill="#030303" data-fill-palette-color="primary"></path><path d="M241.122 211.255l4.402 19.944-0.84 1.037c-0.248 0.046-0.517 0.035-0.807-0.032-0.28-0.068-0.529-0.19-0.747-0.367v0c-0.255-0.207-0.448-0.464-0.578-0.772-0.129-0.298-0.242-0.61-0.339-0.935v0l-4.37-19.984 0.808-0.997c0.291-0.055 0.574-0.051 0.849 0.013 0.269 0.059 0.523 0.186 0.763 0.38v0c0.234 0.19 0.413 0.431 0.536 0.725 0.114 0.295 0.221 0.624 0.323 0.988zM230.273 219.494l8.094-9.994 2.131 1.726-8.644 10.672c-0.158-0.022-0.362-0.081-0.61-0.177-0.243-0.091-0.474-0.225-0.692-0.402v0c-0.362-0.293-0.562-0.596-0.599-0.908-0.032-0.308 0.074-0.614 0.32-0.917zM253.405 221.468l-8.566 10.577-2.099-1.7 9.141-11.287c0.137 0.005 0.322 0.049 0.555 0.131 0.238 0.087 0.474 0.225 0.708 0.415v0c0.346 0.28 0.543 0.581 0.591 0.902 0.043 0.317-0.067 0.638-0.33 0.962z" fill="#030303" data-fill-palette-color="primary"></path><path d="M258.213 194.38l-4.987 13.205-2.378-1.111 4.524-11.843c-1.393-0.636-2.748-0.775-4.067-0.418-1.315 0.351-2.371 1.256-3.169 2.717v0c-0.827 1.515-0.966 3.062-0.416 4.641 0.544 1.576 1.825 2.916 3.845 4.019v0l0.802 0.438c2.043 0.889 3.871 1.056 5.485 0.502 1.614-0.555 2.946-1.793 3.995-3.717v0c0.558-1.022 0.895-2.039 1.012-3.052 0.11-1.016 0.103-1.875-0.022-2.575v0c0.313-0.173 0.631-0.276 0.954-0.311 0.314-0.032 0.618 0.033 0.912 0.194v0c0.463 0.253 0.753 0.75 0.87 1.493 0.117 0.743 0.06 1.613-0.173 2.61-0.226 1-0.631 2.035-1.215 3.105v0c-1.024 1.875-2.254 3.314-3.691 4.316-1.427 1-3.021 1.503-4.78 1.509-1.759 0.007-3.613-0.521-5.56-1.584v0c-1.388-0.758-2.514-1.634-3.376-2.628-0.862-0.993-1.475-2.058-1.838-3.192-0.361-1.125-0.47-2.297-0.328-3.515 0.142-1.218 0.533-2.412 1.173-3.584v0c0.811-1.485 1.84-2.62 3.088-3.405 1.254-0.782 2.623-1.189 4.108-1.221 1.481-0.026 2.952 0.36 4.412 1.157v0c0.541 0.295 0.86 0.626 0.957 0.991 0.094 0.371 0.048 0.791-0.137 1.259z" fill="#030303" data-fill-palette-color="primary"></path><path d="M256.887 180.487v0l6.213 2.151-1.089 3.145-5.98-2.07c-0.602-0.208-1.039-0.483-1.312-0.824-0.278-0.35-0.497-0.846-0.659-1.489v0c-0.211-0.834-0.275-1.896-0.19-3.186 0.078-1.292 0.366-2.66 0.866-4.102v0c0.726-2.097 1.613-2.964 2.661-2.601v0c0.265 0.092 0.495 0.215 0.688 0.369 0.193 0.154 0.348 0.323 0.465 0.509v0c-0.144 0.247-0.314 0.572-0.512 0.975-0.202 0.394-0.375 0.801-0.521 1.222v0c-0.419 1.21-0.66 2.315-0.723 3.315-0.072 1.004-0.041 1.866 0.093 2.586zM269.359 188.327l-9.154-3.169 1.555-2.984 9.833 3.405c0.007 0.147-0.003 0.365-0.03 0.652-0.025 0.281-0.092 0.58-0.202 0.898v0c-0.19 0.55-0.446 0.933-0.767 1.148-0.325 0.206-0.737 0.223-1.235 0.05z" fill="#030303" data-fill-palette-color="primary"></path><path d="M0.112 139.728c0-5.776 4.682-10.457 10.458-10.458 5.776 0 10.457 4.682 10.457 10.458 0 5.776-4.682 10.457-10.457 10.457-5.776 0-10.457-4.682-10.458-10.457z" fill="#030303" data-fill-palette-color="primary"></path><path d="M258.973 139.728c0-5.776 4.682-10.457 10.457-10.458 5.776 0 10.457 4.682 10.458 10.458 0 5.776-4.682 10.457-10.458 10.457-5.776 0-10.457-4.682-10.457-10.457z" fill="#030303" data-fill-palette-color="primary"></path></g><g id="text-1"></g></svg></g></svg></g></svg></g><g></g></svg></g><defs></defs></svg><rect width="280" height="280" fill="none" stroke="none" visibility="hidden"></rect></g></svg></g></svg>